<?xml version="1.0" encoding="iso-8859-1"?>
<!-- Generator: Adobe Illustrator 19.0.0, SVG Export Plug-In . SVG Version: 6.00 Build 0)  -->
<svg version="1.1" id="Layer_1" xmlns="http://www.w3.org/2000/svg" xmlns:xlink="http://www.w3.org/1999/xlink" x="0px" y="0px"
	 viewBox="0 0 511.999 511.999" style="enable-background:new 0 0 511.999 511.999;" xml:space="preserve">
<g>
	<g>
		<path d="M289.991,288.301c-3.185-3.185-8.348-3.185-11.531,0c-12.861,12.862-33.788,12.861-46.649,0
			c-3.185-3.185-8.348-3.185-11.531,0c-3.185,3.185-3.185,8.348,0,11.531c9.609,9.61,22.232,14.415,34.856,14.415
			c12.623,0,25.246-4.805,34.856-14.415C293.175,296.648,293.175,291.485,289.991,288.301z"/>
	</g>
</g>
<g>
	<g>
		<path d="M206.734,214.826c-4.503,0-8.154,3.651-8.154,8.154v13.042c0,4.503,3.651,8.154,8.154,8.154s8.154-3.651,8.154-8.154
			V222.98C214.889,218.477,211.238,214.826,206.734,214.826z"/>
	</g>
</g>
<g>
	<g>
		<path d="M303.534,214.826c-4.503,0-8.154,3.651-8.154,8.154v13.042c0,4.503,3.651,8.154,8.154,8.154
			c4.503,0,8.154-3.651,8.154-8.154V222.98C311.689,218.477,308.038,214.826,303.534,214.826z"/>
	</g>
</g>
<g>
	<g>
		<path d="M316.887,490.756h-53.594v-88.497l35.51,25.228c2.276,1.617,5.218,1.956,7.802,0.904c2.583-1.054,4.449-3.355,4.945-6.102
			l9.68-53.589c0.8-4.432-2.143-8.674-6.575-9.473c-4.434-0.804-8.674,2.143-9.473,6.575l-7.398,40.955l-37.922-26.942
			c-2.829-2.009-6.618-2.01-9.446,0l-37.923,26.942l-7.398-40.955c-0.8-4.432-5.04-7.376-9.473-6.575
			c-4.432,0.8-7.376,5.042-6.575,9.473l9.679,53.589c0.496,2.746,2.362,5.048,4.945,6.102c0.993,0.404,2.039,0.603,3.079,0.603
			c1.668,0,3.323-0.512,4.723-1.507l35.511-25.228v88.497h-102.2v-94.47c0-18.36,9.385-35.02,25.106-44.565
			c3.85-2.338,5.075-7.353,2.739-11.202c-2.338-3.85-7.353-5.075-11.202-2.739c-20.634,12.527-32.952,34.399-32.952,58.506v102.624
			c0,4.503,3.651,8.154,8.154,8.154h180.258c4.503,0,8.154-3.651,8.154-8.154C325.042,494.408,321.39,490.756,316.887,490.756z"/>
	</g>
</g>
<g>
	<g>
		<path d="M348.839,337.781c-3.851-2.335-8.865-1.11-11.203,2.739c-2.336,3.85-1.111,8.865,2.739,11.203
			c15.728,9.549,25.118,26.209,25.118,44.565v94.47h-18.162c-4.503,0-8.154,3.651-8.154,8.154c0,4.503,3.651,8.154,8.154,8.154
			h26.317c4.503,0,8.154-3.651,8.154-8.154V396.287C381.801,372.183,369.479,350.312,348.839,337.781z"/>
	</g>
</g>
<g>
	<g>
		<path d="M267.637,214.348c-4.503,0-8.154,3.651-8.154,8.154v27.116c0,2.398-1.951,4.349-4.349,4.349
			c-2.398,0-4.349-1.951-4.349-4.349v-27.116c0-4.503-3.651-8.154-8.154-8.154c-4.503,0-8.154,3.651-8.154,8.154v27.116
			c0,11.391,9.268,20.658,20.658,20.658c11.391,0,20.657-9.267,20.657-20.658v-27.116
			C275.791,217.998,272.14,214.348,267.637,214.348z"/>
	</g>
</g>
<g>
	<g>
		<path d="M402.112,215.722c0-17.241-13.091-31.48-29.859-33.315l-0.654-6.778h6.719c2.444,0,4.758-1.096,6.307-2.986
			c1.548-1.891,2.168-4.375,1.687-6.771l-6.538-32.617c-0.763-3.81-4.11-6.552-7.996-6.552h-1.685
			C368.17,98.99,356.46,73.2,336.626,53.366c-14.258-14.257-31.802-24.42-51.053-29.671V13.088c0-4.503-3.651-8.154-8.154-8.154
			h-44.577c-4.503,0-8.154,3.651-8.154,8.154v10.62c-22.886,6.272-43.55,19.628-58.717,38.127
			c-15.093,18.409-24.078,41.185-25.768,64.868h-1.722c-3.886,0-7.231,2.742-7.996,6.552l-6.538,32.617
			c-0.481,2.396,0.139,4.881,1.687,6.771c1.549,1.89,3.864,2.986,6.307,2.986h6.716l-0.654,6.778
			c-16.762,1.835-29.849,16.073-29.849,33.315c0.002,15.084,9.896,27.862,23.677,32.06c-1.288,30.094,12.674,59.287,37.186,77.09
			l44.631,32.432c12.405,9.015,26.941,13.522,41.482,13.521c14.539-0.001,29.084-4.508,41.493-13.521l44.63-32.432
			c24.505-17.806,38.463-46.999,37.175-77.09C392.214,243.583,402.112,230.807,402.112,215.722z M133.332,230.786
			c-5.305-2.936-8.868-8.578-8.868-15.063c0-7.638,5.005-14.122,11.903-16.365L133.332,230.786z M285.575,40.696
			c14.83,4.781,28.346,13.028,39.52,24.202c16.751,16.752,26.757,38.453,28.65,61.806h-62.432
			c7.583-8.545,12.202-19.777,12.202-32.074c0-15.151-7.004-28.69-17.939-37.568V40.696z M240.998,21.243h28.268v27.116
			c-4.473-1.37-9.219-2.111-14.134-2.111s-9.661,0.742-14.134,2.111V21.243z M255.132,62.557c17.686,0,32.073,14.387,32.073,32.074
			s-14.387,32.074-32.073,32.074s-32.074-14.389-32.074-32.074C223.058,76.945,237.446,62.557,255.132,62.557z M224.689,40.719
			v16.343c-10.935,8.878-17.939,22.418-17.939,37.568c0,12.297,4.619,23.529,12.202,32.074h-62.415
			C159.843,87.07,187.022,52.916,224.689,40.719z M331.665,311.679l-44.627,32.431c-19.086,13.862-44.728,13.862-63.803,0.001
			l-44.633-32.433c-21.154-15.364-32.732-41.077-30.216-67.105l6.659-68.943h29.04v0l7.48,21.686
			c1.134,3.288,4.23,5.495,7.709,5.495h111.716c3.478,0,6.575-2.207,7.709-5.495l7.48-21.686h29.036l6.659,68.944
			C364.388,270.6,352.813,296.312,331.665,311.679z M201.335,175.63h107.592l-3.751,10.872h-100.09L201.335,175.63z
			 M141.895,159.321l3.269-16.309h219.935l3.269,16.309H141.895z M376.926,230.787l-3.036-31.43
			c6.905,2.243,11.913,8.727,11.913,16.365C385.804,222.207,382.236,227.851,376.926,230.787z"/>
	</g>
</g>
<g>
	<g>
		<path d="M255.132,72.422c-12.246,0-22.208,9.962-22.208,22.208c0,12.246,9.962,22.209,22.208,22.209s22.208-9.963,22.208-22.209
			C277.34,82.384,267.377,72.422,255.132,72.422z M255.132,100.53c-3.253,0-5.899-2.647-5.899-5.9c0-3.253,2.646-5.899,5.899-5.899
			s5.899,2.646,5.899,5.899C261.031,97.883,258.385,100.53,255.132,100.53z"/>
	</g>
</g>
<g>
	<g>
		<path d="M472.24,194.773h-50.636c-4.503,0-8.154,3.651-8.154,8.154c0,4.503,3.651,8.154,8.154,8.154h50.636
			c12.931,0,23.45,10.519,23.45,23.45c0,10.494-7.056,19.783-17.16,22.59c-3.53,0.981-5.972,4.193-5.972,7.857v26.969h-71.745
			v-26.969c0-4.503-3.651-8.154-8.154-8.154c-4.503,0-8.154,3.651-8.154,8.154v35.123c0,4.163,3.123,7.591,7.152,8.087v68.045
			c0,11.12,6.423,20.764,15.751,25.43v37.082c0,4.503,3.651,8.154,8.154,8.154h1.494v31.24c0,1.38,0.35,2.735,1.017,3.942
			l11.475,20.772c1.435,2.599,4.169,4.212,7.138,4.212c2.968,0,5.703-1.613,7.138-4.212l11.475-20.772
			c0.666-1.207,1.017-2.564,1.017-3.942V446.9h1.494c4.503,0,8.154-3.651,8.154-8.154v-37.082c9.327-4.668,15.75-14.31,15.75-25.431
			v-22.087c0-4.503-3.651-8.154-8.154-8.154c-4.503,0-8.154,3.651-8.154,8.154v22.087c0,6.68-5.435,12.114-12.114,12.114H420.08
			c-6.68,0-12.114-5.435-12.114-12.114v-42.4h33.209c4.503,0,8.154-3.651,8.154-8.154c0-4.503-3.651-8.154-8.154-8.154h-33.209
			v-9.269h57.437v17.621c0,4.503,3.651,8.154,8.154,8.154c4.503,0,8.154-3.651,8.154-8.154v-17.688
			c4.031-0.494,7.156-3.923,7.156-8.087v-29.457c13.882-6.404,23.132-20.469,23.132-36.113
			C511.998,212.608,494.163,194.773,472.24,194.773z M440.004,476.036L440.004,476.036l-3.32,6.01l-3.32-6.01v-29.138h6.641V476.036
			z M423.716,404.654h25.936v25.936h-25.936V404.654z"/>
	</g>
</g>
<g>
	<g>
		<path d="M469.64,225.098h-54.56c-4.503,0-8.154,3.651-8.154,8.154s3.651,8.154,8.154,8.154h54.56c4.503,0,8.154-3.651,8.154-8.154
			S474.144,225.098,469.64,225.098z"/>
	</g>
</g>
<g>
	<g>
		<path d="M217.757,440.375h-47.293c-4.503,0-8.154,3.651-8.154,8.154c0,4.503,3.651,8.154,8.154,8.154h47.293
			c4.503,0,8.154-3.651,8.154-8.154C225.911,444.025,222.26,440.375,217.757,440.375z"/>
	</g>
</g>
<g>
	<g>
		<path d="M142.033,312.198c-10.347-2.645-20.987-4.232-31.724-4.771v-24.843c2.809,0.257,5.601,0.641,8.354,1.16
			c4.426,0.834,8.689-2.079,9.523-6.504c0.834-4.426-2.079-8.689-6.504-9.523c-3.743-0.705-7.548-1.181-11.372-1.475v-10.669
			c0-4.503-3.651-8.154-8.154-8.154c-4.503,0-8.154,3.651-8.154,8.154v10.655c-44.999,3.45-82.924,35.215-93.768,79.631
			c-0.824,3.377,0.583,6.905,3.504,8.788c1.349,0.87,2.884,1.3,4.416,1.3c1.784,0,3.563-0.585,5.034-1.74
			c23.451-18.398,51.242-28.843,80.813-30.466v175.167c0,4.503,3.651,8.154,8.154,8.154c4.503,0,8.154-3.651,8.154-8.154V323.752
			c9.372,0.524,18.654,1.939,27.684,4.247c4.36,1.118,8.804-1.518,9.92-5.881C149.029,317.755,146.396,313.313,142.033,312.198z
			 M94,307.424c-24.39,1.201-47.713,7.775-68.808,19.358C39.327,301.983,64.836,285.242,94,282.59V307.424z"/>
	</g>
</g>
<g>
	<g>
		<circle cx="282.441" cy="440.027" r="8.154"/>
	</g>
</g>
<g>
	<g>
		<circle cx="282.441" cy="473.655" r="8.154"/>
	</g>
</g>
<g>
</g>
<g>
</g>
<g>
</g>
<g>
</g>
<g>
</g>
<g>
</g>
<g>
</g>
<g>
</g>
<g>
</g>
<g>
</g>
<g>
</g>
<g>
</g>
<g>
</g>
<g>
</g>
<g>
</g>
</svg>
