<svg height="682pt" viewBox="-48 -21 682 682.66669" width="682pt" xmlns="http://www.w3.org/2000/svg"><path d="m439.785156 571.207031c-4.847656 5.351563-7.523437 12.285157-7.523437 19.511719v39.90625c0 12.035156 18.75 12.054688 18.75 0v-39.90625c0-2.5625.945312-5.023438 2.667969-6.925781l30.734374-33.917969 24.753907-27.332031c4.972656-5.480469 1.484375-15.371094-6.25-15.636719-4.109375-.148438-6.738281 3.109375-9.832031 5.46875zm0 0"/><path d="m583.148438 292.960938c-.0625-17.488282-14.339844-31.710938-31.824219-31.710938-4.257813 0-8.308594.929688-11.953125 2.582031.265625-4.75.421875-9.53125.421875-14.34375 0-137.570312-111.914063-249.488281-249.472657-249.488281-52.859374 0-103.371093 16.328125-146.066406 47.21875-9.589844 6.929688 1.105469 22.332031 10.988282 15.1875 40.28125-29.140625 89.367187-44.445312 139.054687-43.609375-1.367187 6.601563-3.625 15.910156-7.0625 25.949219-5.832031 17.015625-16.3125 39.507812-33.085937 49.996094-49.738282 31.085937-67.441407 73.652343-47.335938 113.855468 20.6875 41.378906 62.675781 34.210938 99.726562 27.886719 4.902344-.839844 20.226563-5.785156 24.523438-2.039063 8.824219 7.671876 8.960938 41.628907 9.074219 68.917969.140625 35.09375.277343 68.238281 13.320312 84.839844 7.613281 9.691406 19.46875 13.539063 31.472657 11.933594l-31.40625 71.285156c-40.566407 11.570313-84.199219 11.699219-124.851563.453125l-15.15625-34.40625c-4.855469-11.015625-22.015625-3.46875-17.160156 7.566406l17.648437 40.050782 21.113282 47.925781c.566406 1.320312.84375 2.722656.828124 4.128906l-1.210937 93.367187c-.148437 12.050782 18.59375 12.464844 18.75.238282l1.210937-93.394532c.039063-4.046874-.746093-7.984374-2.375-11.804687l-14.113281-32.03125c34.75 7.382813 71.046875 7.269531 105.746094-.367187l-14.316406 32.496093c-1.589844 3.722657-2.375 7.660157-2.332031 11.738281l1.207031 93.363282c.15625 12.050781 18.910156 11.988281 18.75-.238282l-1.207031-93.339843c-.019532-1.433594.261718-2.835938.785156-4.0625l66.671875-151.339844c5.480469-12.820313 25.859375-3.375 20.609375 9.40625l-22.519532 48.15625c-.050781.09375-.09375.199219-.136718.300781-5.152344 12.128906-1.917969 25.386719 8.246094 33.777344 10.15625 8.390625 23.789062 9.058594 34.726562 1.707031l73.730469-49.605469c8.042969-5.410156 12.84375-14.421874 12.84375-24.117187v-111.078125c0-15.589844 23.332031-11.476562 23.386719 2.714844.113281 30.730468.316406 114.855468.347656 136.265625.003906 2.5625-.941406 5.023437-2.667969 6.925781l-35.097656 38.738281c-8.136719 8.988281 5.828125 21.496094 13.898437 12.585938l35.09375-38.734375c4.867188-5.367188 7.539063-12.308594 7.527344-19.546875-.035156-21.414063-.238281-105.558594-.351562-136.300781zm-151.5 165.984374c-.507813-.421874-1.40625-1.253906-2.207032-2.464843 19.804688-13.355469 37.59375-29.480469 52.820313-47.804688v25.113281l-38.292969 25.761719c-5.921875 3.988281-10.925781.546875-12.320312-.605469zm19.542968-60.003906c.042969-.105468.09375-.207031.132813-.308594 5.609375-13.199218 1.0625-28.082031-10.308594-35.984374.945313-1.203126 1.878906-2.417969 2.773437-3.65625 13.179688-18.132813 19.011719-36.632813 16.433594-52.097657-4.894531-29.414062-8.136718-48.847656-1.054687-64.878906 6.648437-15.039063 22.960937-28.964844 55.378906-46.941406 4.230469 17.449219 6.492187 35.671875 6.492187 54.414062 0 70.902344-32.152343 134.425781-82.636718 176.792969zm66.511719 11.003906-16.691406 11.230469v-38.238281c8.027343-12.625 14.941406-26.023438 20.625-40.046875v62.011719c-.734375 2.027344-2.085938 3.804687-3.933594 5.042968zm-124.804687-31.5c-11.464844 5.0625-19.773438 4.445313-24.699219-1.824218-9.0625-11.539063-9.195313-44.371094-9.316407-73.335938-.152343-37.421875-.285156-69.734375-15.507812-82.988281-11.152344-9.703125-27.050781-4.507813-39.996094-2.296875-40.648437 6.941406-66.304687 9.207031-79.800781-17.785156-7.359375-14.722656-18.144531-52.914063 40.507813-89.574219 32.550781-20.347656 45.246093-70.636719 49.132812-90.757813 91.6875 9.078126 167.761719 72.054688 196.019531 156.71875-38.847656 21.167969-58.527343 38.171876-67.21875 57.835938-9.347656 21.164062-5.550781 43.96875-.285156 75.539062 2.035156 12.21875-6.21875 31.199219-20.09375 46.800782-3.046875.144531-6.085937.769531-9.023437 1.894531-7.421876 2.835937-13.222657 8.421875-16.304688 15.628906l-1.410156 3.207031c-.664063.320313-1.328125.640626-2.003906.9375zm0 0"/><path d="m195.339844 396.21875-9.613282-21.820312c-7.1875-16.816407-26.753906-21.570313-42.207031-13.382813-1.484375-2.660156-3.101562-5.34375-4.863281-8.027344-3.09375-4.710937 2.046875-17.972656 7.753906-30.507812 8.351563-18.335938 25.859375-43.75 20.136719-64.816407-2.792969-10.28125-11.210937-16.695312-20.632813-20.796874-9.121093-3.96875-22.1875-4.460938-29.957031-10.816407-4.933593-4.035156-12.777343-18.515625-19.078125-30.152343-7.089844-13.085938-13.832031-25.527344-20.570312-32.765626 9.648437-23.910156 23.335937-46.195312 40.699218-65.929687 1.710938-1.949219 3.445313-3.882813 5.234376-5.777344 8.246093-8.769531-5.402344-21.628906-13.660157-12.847656-43.675781 46.429687-67.726562 107.128906-67.726562 170.910156 0 4.597657.148437 9.1875.402343 13.769531-3.28125-1.289062-6.847656-2.003906-10.585937-2.003906-17.480469 0-31.757813 14.222656-31.820313 31.707032-.113281 30.742187-.316406 114.886718-.351562 136.300781-.007812 7.238281 2.660156 14.179687 7.523438 19.550781l122.296874 134.980469c1.71875 1.90625 2.671876 4.363281 2.671876 6.925781v39.90625c0 5.175781 4.191406 9.375 9.375 9.375 5.175781 0 9.375-4.199219 9.375-9.375v-39.90625c0-1.582031-.152344-3.148438-.40625-4.695312-.894532-5.492188-3.332032-10.636719-7.121094-14.816407l-122.292969-134.988281c-1.730469-1.902344-2.675781-4.363281-2.671875-6.925781.035156-21.410157.234375-105.535157.347656-136.265625.054688-14.144532 23.386719-18.347656 23.386719-2.714844v111.078125c0 9.6875 4.800781 18.703125 12.84375 24.113281l73.730469 49.605469c10.9375 7.355469 24.566406 6.683594 34.730468-1.707031 10.160157-8.386719 13.394532-21.648438 8.242188-33.777344-.042969-.097656-.085938-.203125-.136719-.296875l-22.769531-48.746094c-5.160156-12.589843 15.542969-21.25 20.90625-8.722656l9.652344 21.921875c4.859375 11.027344 22.015625 3.464844 17.15625-7.5625zm-44.988282 62.726562c-1.390624 1.152344-6.398437 4.589844-12.324218.605469l-38.292969-25.757812v-23.339844c15.144531 17.902344 32.769531 33.679687 52.320313 46.71875-.648438.839844-1.296876 1.441406-1.703126 1.773437zm-89.992187-112.699218c3.769531 8.957031 8.039063 17.71875 12.84375 26.195312 2.464844 4.347656 5.066406 8.605469 7.78125 12.785156v35.949219l-16.6875-11.222656c-1.847656-1.242187-3.199219-3.023437-3.9375-5.050781zm20.03125-141.421875c8.179687 15.101562 15.902344 29.363281 23.691406 35.730469 11.214844 9.179687 33.929688 7.054687 42.585938 18.855468 7.988281 10.898438-7.761719 35.035156-12.472657 44.941406-10.777343 22.675782-20.964843 44.09375-11.207031 58.933594 2.789063 4.25 5.136719 8.492188 7.128907 12.671875-2.71875 6.851563-2.816407 14.730469.300781 22.085938.046875.097656.089843.199219.136719.296875l9.71875 20.800781c.035156 2 .007812 3.859375-.058594 5.546875-20.257813-17.386719-37.5-38.226562-50.703125-61.5-19.570313-34.484375-29.914063-73.804688-29.914063-113.699219 0-22.246093 3.171875-44.089843 9.277344-64.960937 3.785156 6.035156 7.902344 13.628906 11.515625 20.296875zm0 0"/></svg>